<svg width="128" height="128" viewBox="0 0 128 128" fill="none" xmlns="http://www.w3.org/2000/svg">
<path d="M117 26H104C100.686 26 98 28.6863 98 32V109C98 112.314 100.686 115 104 115H117C120.314 115 123 112.314 123 109V32C123 28.6863 120.314 26 117 26Z" fill="white"/>
<path d="M84 48H72C68.6863 48 66 50.727 66 54.0909V108.909C66 112.273 68.6863 115 72 115H84C87.3137 115 90 112.273 90 108.909V54.0909C90 50.727 87.3137 48 84 48Z" fill="white"/>
<path d="M24 60H11C7.68629 60 5 62.6863 5 66V109C5 112.314 7.68629 115 11 115H24C27.3137 115 30 112.314 30 109V66C30 62.6863 27.3137 60 24 60Z" fill="white"/>
<path d="M54 71H42C38.6863 71 36 73.6863 36 77V109C36 112.314 38.6863 115 42 115H54C57.3137 115 60 112.314 60 109V77C60 73.6863 57.3137 71 54 71Z" fill="white"/>
<path d="M48 60C54.6274 60 60 54.6274 60 48C60 41.3726 54.6274 36 48 36C41.3726 36 36 41.3726 36 48C36 54.6274 41.3726 60 48 60Z" fill="white"/>
</svg>
