<svg width="128" height="128" viewBox="0 0 128 128" fill="none" xmlns="http://www.w3.org/2000/svg">
  <!-- bars -->
  <path d="M117 26H104C100.686 26 98 28.686 98 32V109C98 112.314 100.686 115 104 115H117C120.314 115 123 112.314 123 109V32C123 28.686 120.314 26 117 26Z" class="bar"/>
  <path d="M84 48H72C68.686 48 66 50.686 66 54V109C66 112.314 68.686 115 72 115H84C87.314 115 90 112.314 90 109V54C90 50.686 87.314 48 84 48Z" class="bar"/>
  <!-- fixed third bar (aligned baseline at 115) -->
  <path d="M24 60H11C7.686 60 5 62.686 5 66V109C5 112.314 7.686 115 11 115H24C27.314 115 30 112.314 30 109V66C30 62.686 27.314 60 24 60Z" class="bar"/>
  <path d="M54 71H42C38.686 71 36 73.686 36 77V109C36 112.314 38.686 115 42 115H54C57.314 115 60 112.314 60 109V77C60 73.686 57.314 71 54 71Z" class="accent"/>
  <path d="M48 60C54.627 60 60 54.627 60 48C60 41.373 54.627 36 48 36C41.373 36 36 41.373 36 48C36 54.627 41.373 60 48 60Z" class="accent"/>
  
  <style>
    .bar { fill: #282728; }
    .accent { fill: #006cac; }
    @media (prefers-color-scheme: dark) {
      .bar { fill: #eaedf3; }
      .accent { fill: #ff6b01; }
    }
  </style>
</svg>

