<svg width="128" height="128" viewBox="0 0 128 128" fill="none" xmlns="http://www.w3.org/2000/svg">
<path d="M121.52 16H107.48C103.901 16 101 18.8976 101 22.4719V105.528C101 109.102 103.901 112 107.48 112H121.52C125.099 112 128 109.102 128 105.528V22.4719C128 18.8976 125.099 16 121.52 16Z" fill="white"/>
<path d="M86.5102 40H72.9898C69.4056 40 66.5 42.9085 66.5 46.4962V105.504C66.5 109.092 69.4056 112 72.9898 112H86.5102C90.0944 112 93 109.092 93 105.504V46.4962C93 42.9085 90.0944 40 86.5102 40Z" fill="white"/>
<path d="M20.52 52.5H6.48C2.90119 52.5 0 55.4061 0 58.9909V105.509C0 109.094 2.90119 112 6.48 112H20.52C24.0988 112 27 109.094 27 105.509V58.9909C27 55.4061 24.0988 52.5 20.52 52.5Z" fill="white"/>
<path d="M53 64.5H40C36.4101 64.5 33.5 67.4 33.5 70.9773V105.523C33.5 109.1 36.4101 112 40 112H53C56.5899 112 59.5 109.1 59.5 105.523V70.9773C59.5 67.4 56.5899 64.5 53 64.5Z" fill="white"/>
<path d="M46.5 52.5C53.6797 52.5 59.5 46.7916 59.5 39.75C59.5 32.7084 53.6797 27 46.5 27C39.3203 27 33.5 32.7084 33.5 39.75C33.5 46.7916 39.3203 52.5 46.5 52.5Z" fill="white"/>
</svg>
